<svg viewBox="0 0 1000 1000" xmlns="http://www.w3.org/2000/svg" role="img" aria-labelledby="initials-title initials-description">
  <title id="initials-title">T M</title>
  <desc id="initials-description">Tyler Morgan's initials</desc>
  <path fill="#000" d="m605.18 834.7c-30.019-70.644-229.22-106.26-230.16-71.112-0.23821 8.8438-0.69644 12.62-13.724 12.961-16.035 0.41998-16.443-1.4524-16.144-10.901-68.89 20.704-128.44 61.164-191.56 93.736-6.9235 3.5942-10.777 3.1789-31.188 3.0177-17.767-0.14018-22.613-0.0349-25.308-3.5931-5.5098-7.2767 52.394-40.293 68.928-49.607 49.673-27.983 107.47-51.392 182.66-78.408 5.1453-39.591 27.247-164.48 31.935-244.77 4.4846-65.763 5.6409-159.61-6.9747-222.12-47.377 23.925-88.524 45.803-129.72 59.357-71.751 23.603-148.79 39.791-164.62 18.098-26.852-36.802 79.529-86.068 110.54-97.768 31.01-11.699 157.17-48.675 196.98-16.806 18.06-9.9112 27.349-14.704 38.892-21.528-0.0485-9.1607-1.7286-11.127 13.237-17.199 14.965-6.0718 16.62-5.5046 17.311 8.4897 115.17-30.959 197.79-48.811 316.14-58.06 34.967-2.7326 63.749 0.97673 63.765 1.942 0.0315 1.9596-180.01 29.122-238.53 42.413-58.528 13.293-105.91 26.396-142.66 40.576-1.936 10.072-14.729 115.3-19.264 145.97-6.864 46.412-15.25 90.375-33.693 203.02-8.4237 51.451-15.659 99.257-22.75 146.3 20.955-8.088 31.434-11.886 54.975-20.409 63.502-22.99 126.96-43.987 191.65-62.502 9.311-108.37 12.997-141.59 13.652-154.04-12.693 24.69-29.939 57.389-41.158 78.8-6.8174 14.239-8.7018 14.258-26.201 12.825-17.499-1.4329-19.205-3.2562-16.241-19.939 2.9639-16.684 8.8734-60.749 13.097-85.283-4.9832 10.111-74.963 189.19-79.696 196.9-5.2101 8.4943-6.8796 8.6759-17.753 12.11-10.874 3.4348-13.12 3.1348-9.7735-5.4969 46.668-117.01 91.385-234.26 130.23-354.03 3.6604-10.963 10.351-9.9634 20.58-8.0416 10.229 1.9223 18.964 3.3766 14.677 19.1-4.2873 15.724-15.702 64.15-21.225 96.734-3.0905 19.181-10.111 63.371-15.024 88.729 18.06-34.931 32.928-71.287 44.739-108.67 7.2633-23.49 16.237-60.354 18.506-68.331 4.5304-15.931 10.184-18.474 23.118-15.899 12.934 2.5755 18.702 6.9123 15.131 20.871-24.817 93.074-28.013 189.66-35.832 285.05 122.79-30.313 151.67-31.376 196.13-36.055 44.463-4.679 72.129-1.5648 72.157 0.0789 0.0281 1.6444-28.724 8.1132-70.764 16.695-42.039 8.5817-151.61 33.927-198.96 52.566-5.4894 66.139-10.928 125.49-14.701 191.76-0.39713 6.9747-0.74326 9.9663-15.576 10.153-16.435 0.20599-16.392-2.7482-16.231-9.7468 0.16117-6.9984 2.3321-7.7843-3.5877-17.946zm19.223-165.97c-62.974 17.695-125.21 37.727-187.65 57.091 33.089 5.0784 136.08 24.542 178.17 75.001 1.3544-21.109 7.0127-89.651 9.4828-132.09zm-199.41-431.47c-6.1074 3.2066-18.923 10.714-25.469 15.168 4.5734 45.847 7.533 99.585 7.2378 144.93 7.5834-53.17 13.838-106.58 18.231-160.1zm-63.418 3.1515c-24.49-11.062-94.261-0.12235-167.03 24.314-87.912 29.523-154.61 86.291-22.857 56.432 70.988-14.728 161.31-63.733 189.88-80.746z" />
  <!--Copyright Tyler Morgan. All rights reserved.-->
  <!--See https://tylermorgan.co/intellectual-property/ for more info.-->
</svg>
