<svg xmlns="http://www.w3.org/2000/svg" viewBox="0 0 1024 1024" width="1024" height="1024" role="img" aria-labelledby="initials-title initials-description">
  <title id="initials-title">T M</title>
  <desc id="initials-description">Tyler Morgan initials</desc>
  <path id="fg" fill="#000" d="M380 792c0 8-1 12-14 13-17 0-17-2-17-11-73 21-139 64-205 98-8 4-8 4-30 3-18 0-19 1-22-2-1-1 35-45 261-136 24-163 54-330 26-495-70 36-269 118-310 82-47-61 258-175 324-121l41-23c0-10-2-12 14-18 16-7 18-6 18 9 121-33 208-52 333-62 37-2 67 1 67 2 0 6-252 30-401 88-21 176-53 350-80 525l58-22c67-25 133-47 202-66l15-163-45 84c-6 14-8 14-27 12-18-1-20-3-17-21l14-90c-5 11-79 200-84 209-6 9-8 9-18 13-12 4-15 3-11-6 49-124 96-249 137-375 4-11 11-10 22-8s20 3 15 20c-16 65-27 130-38 196 33-59 49-124 66-188 6-16 11-19 25-16 13 3 20 7 17 22-27 98-30 201-38 302 129-32 159-33 206-39 46-5 76-1 76 0 0 6-195 39-285 74-5 70-11 133-14 203-1 7-1 10-17 10-17 1-17-2-17-9 0-84-245-137-247-94zM367 237c-95-42-432 134-196 82 74-16 161-70 196-82zM433 234l-26 15c4 49 10 106 7 154 8-56 15-112 19-169zM643 691c-67 18-146 43-211 64 41 2 162 22 201 83z" />
  <!--Copyright Tyler Morgan. All rights reserved.-->
  <!--See https://tylermorgan.co/intellectual-property/ for more info.-->
</svg>
