<svg xmlns="http://www.w3.org/2000/svg" viewBox="0 0 1000 1000" width="1000" height="1000" role="img" aria-labelledby="initials-title initials-description">
  <title id="initials-title">T M</title>
  <desc id="initials-description">Tyler Morgan initials</desc>
  <path fill="#000" d="M605 835c-30-71-229-107-230-71 0 8-1 12-14 13-16 0-16-2-16-11-69 20-128 61-191 93-7 4-11 4-32 3-17 0-22 0-25-3-5-7 52-40 69-50 50-28 107-51 183-78 5-40 27-165 32-245 4-66 5-160-7-222-48 24-89 46-130 59-72 24-149 40-165 18-27-36 80-86 111-97 31-12 157-49 197-17l39-22c0-9-2-11 13-17s17-5 17 9c115-31 198-49 316-59 35-2 64 1 64 2 0 2-180 30-238 43-59 13-106 26-143 40l-19 146-34 203-23 147 55-21c64-23 127-44 192-62l14-154-42 79c-6 14-8 14-26 12-17-1-19-3-16-20l13-85c-5 10-75 189-80 197-5 9-7 9-17 12-11 4-14 3-10-5 46-117 91-235 130-354 4-11 10-10 21-8 10 2 19 3 14 19l-21 96-15 89c18-35 33-71 45-109l18-68c5-16 10-18 23-16 13 3 19 7 16 21-25 93-28 190-36 285 123-30 151-31 196-36 44-5 72-1 72 0 0 2-29 8-71 17-42 8-151 34-199 52-5 67-11 126-14 192-1 7-1 10-16 10-16 1-16-2-16-9s2-8-4-18zm19-166c-63 17-125 37-187 57 33 5 136 24 178 75l9-132zM425 237l-25 15c4 46 7 100 7 145 7-53 14-106 18-160zm-63 3c-25-11-95 0-167 25-88 29-155 86-23 56 71-15 161-64 190-81z" />
  <!--Copyright Tyler Morgan. All rights reserved.-->
  <!--See https://tylermorgan.co/intellectual-property/ for more info.-->
</svg>
