<svg xmlns="http://www.w3.org/2000/svg" viewBox="0 0 3000 1000" width="3000" height="1000" role="img" aria-labelledby="signature-title signature-description">
  <title id="signature-title">Tyler Morgan</title>
  <desc id="signature-description">Tyler Morgan signature</desc>
  <path fill="#000" d="M1842 100c-133-1-458 35-492 39-82 9-339 44-362 48l-75 12c-3 0-6-29-73-37-34-4-61-7-97-3-127 12-238 60-347 104-34 14-268 108-289 121-13 7-4 11-2 11 42 10 86 4 127-3 136-22 266-57 396-91 79-21 198-51 210-53-5 24-14 48-21 72-13 40-32 115-38 137-16 54-22 84-32 124l-28 134c-6 34-3 64-2 68s4 4 11 4c6 0 17-4 18-11 6-32 10-60 18-90 7-29 11-39 17-59 45 9 65 6 100-31 12 3 19 5 29-2 0 16-3 24-5 39l-35 53c-32 47-73 120-78 136s-2 17 4 24 16 6 29-2c12-8 25-20 47-49 23-28 48-99 53-112 4-14 16-45 18-55 20 5 28 12 51 1 23-12 47-30 71-53l58-52-6 19c-3 8-4 13-4 23 0 8 0 14 9 21 8 7 26 6 33 2 30-13 36-27 43-31h5l-11 17c-9 16-15 43 8 47 23 5 54-3 76-13 42-19 95-53 115-67 20-13 28-23-12-6-65 28-105 47-141 60-11 4-25 3-24 0 0-4 7-9 12-21 6-12 9-22 20-33 10-9 23-18 28-29 3-5 5-8-1-13-3-2-8-4-13-4-4-1-11 7-18 9-7 1-21-4-29 0-11 5-12 12-19 19-6 6-16 13-22 20s-13 13-24 18c-3-9-2-15 0-24 4-15 6-16 14-25 0 0 8 0 22-8 14-9 17-21 9-29-9-7-39-7-47-4-13 5-19 13-26 24-6 12-16 16-27 26l-77 70c-22 20-35 27-25-8 5-16 13-23 24-38l32-40 51-61c26-32 49-65 70-98 8-13 24-34 9-48-26-20-69 15-73 18-36 28-83 99-94 117-17 26-26 53-36 81l-12 32c-2 5-5 24-13 25-8-1 4-10 4-32-1-7-2-8-10-11-7-2-14-2-22 0s-13 14-15 17c-10-5-15-8-28-5-9 3-14 10-17 29-2 12-2 15-8 21-22 24-65 12-66 12 9-23 20-53 29-70 26-55 48-112 67-167 22-65 36-123 38-142 113-21 211-33 336-50 139-19 552-56 560-57 59-5 93-10 69-14-10-2-25-3-44-3zM781 179c30 0 52 4 64 7 4 2 0 26-2 32-158 40-314 83-473 122-57 14-96 24-145 21a2639 2639 0 0 1 440-168c47-12 86-15 116-14zm90 13s13 1 19 14l-21 6zm22 41-13 59c-12 52-61 181-73 208-11 27-16 39-22 47-2-10 7-48 15-78 18-63 68-226 66-227l27-9zm693 66c-8 1-18 8-26 38-8 29-33 86-49 123-15 37-46 92-58 117a2071 2071 0 0 0-58 127c-46-6-116-12-196 1s-189 53-243 82c-53 29-73 45-95 63-22 17-44 35-41 40s44 6 67 2c32-6 254-44 601-99 9 14 20 28 27 43 17 31 19 46 25 58 1 3 6 5 11 5 4 1 8 2 15-1 13-7 34-67 61-129 49-11 370-72 389-75-2 22-5 49 1 64 5 16 4 17 10 24 6 8 31 3 33 0 3-4 6-16 9-39s3-47 4-57c68-13 109-21 207-35 195-30 451-55 510-59 47-4 110-16 110-17s-63-4-112-2c-193 10-526 56-569 63-85 12-109 18-144 23 0-12 2-42 13-57 12-15 26-22 31-24 15 10 24 18 48 19 23 0 43-8 63-20 11-7 15-11 20-17 8 2 29 4 40-1 25-10 27-38 39-40s13 21 52 13c19-4 82-45 125-64 26 6 54 12 81 6 36-10 130-106 130-106-10-4-126 81-149 82-23 2-28-4-45-4-70 3-133 59-150 58-3 0-3-9-6-17-5-14-26-15-38-8s-38 33-55 44c-2-14 10-26 4-36s-16-15-34-11c-109 36-144 72-149 79-6-8-2-13-11-21l-14-7c-4 0-11 1-14 4-7 6-22 4-42 10-34 9-61 25-88 41 0-4-1-9-3-13-1-4-2-5-8-7-7-3-9 0-14-4-5-3-8-10-16-11-7-2-28 16-46 30l-13 7c-2-1-3-7-4-13-1-7-2-9-7-15-5-5-36-7-40-4-4 2-8 2-11 1-4-1-27 2-40 11-18 13-38 27-55 41l8-33c4-16 18-94 31-140 7-26 29-70 35-86s-4-22-12-23-22 1-32 18-78 158-93 191c-15 32-36 77-45 87-3-35-1-71 4-107 9-61 26-122 43-182 7-27-5-31-14-31h-8zm-443 24c2 0-1 9-3 14-24 44-64 94-79 114l-62 72c6-32 31-75 48-102 18-28 70-81 77-87s17-12 19-11zm393 158-7 78c-3 40-6 68-6 84 0 10 7 18 32 20 24 1 35-8 43-31 7-20 11-35 22-63 11-27 22-52 37-78-1 14-2 12-7 40-9 50-36 149-56 216l-97 18c-18-21-42-38-70-53 4-15 17-43 28-72 9-21 16-36 28-58 10-17 13-27 22-44 8-18 20-44 31-57zm684 39h5c3 0 4 1 5 3 2 4-26 39-39 44-14 5-21 7-29 3s-6-9-3-15c4-8 18-11 25-17 9-5 13-11 20-14l16-4zm-471 74c1 4 2 9 9 15 11 9 21 7 13 17-9 10-32 16-44 10s-9-21-4-27c5-5 18-12 26-15zm218 3-3 15c-1 10-4 19 14 23 19 3 46-6 52-9-2 13-9 39-11 43-144 28-298 55-386 70l20-69c26-8 29-18 33-18 1 0 19 10 31 12 13 3 33 6 57 2 19-2 33-13 38-21 6-7 7-15 8-24 12-3 32-8 31-4-1 8-3 18-2 25s32 14 46 12c5-1 22-11 32-21 26-25 29-25 40-36zM897 689c-4 18-21 61-29 76s-24 34-37 43c1-12 10-33 16-45 7-12 37-64 50-74zm399 26c35-1 65 2 93 7-8 32-10 33 8 37 22 5 22-15 25-25 4 2 29 17 46 36-191 32-384 62-576 93 31-29 129-87 195-109 83-27 152-38 209-39zm292 60c-6 17-18 45-34 68l-36-54c22-5 48-11 70-14z" />
  <!--Copyright Tyler Morgan. All rights reserved.-->
  <!--See https://tylermorgan.co/intellectual-property/ for more info.-->
</svg>
