<svg xmlns="http://www.w3.org/2000/svg" viewBox="0 0 3072 1024" width="3072" height="1024" role="img" aria-labelledby="signature-title signature-description">
  <title id="signature-title">Tyler Morgan</title>
  <desc id="signature-description">Tyler Morgan signature</desc>
  <g id="fg" fill="none" stroke="#000" stroke-linecap="round" stroke-linejoin="round" stroke-width="35">
    <path id="t" d="M838 163s-24 146-102 421c-28 102-37 251-35 238 1-12 50-216 64-248 98-223 121-344 120-363 0-15-5-56-88-56-240-3-465 106-681 211-197 97 503-97 848-173 347-77 957-112 957-112" />
    <path id="yler" d="M731 635s33 21 70 14 54-72 66-72c12-1-15 42 9 37 24-6 27-51 39-51s-16 135-28 176c-15 54-33 81-48 100-17 22-53 55-60 51s16-60 41-104c23-44 124-181 159-213 34-32 65-65 108-127 57-80 86-131 75-138-10-7-42 2-84 46-39 42-94 154-109 194-16 42-16 93-8 104 7 9 42-15 56-26 36-29 75-82 96-92 29-13 71-6 69-26-2-21-26-18-43-4-23 18-24 95-5 99s36-18 48-29c13-12 32-40 37-39 6 1-23 36-10 36s44-20 51-31c8-12 1-18-13-1-9 11-58 74-50 94 7 16 21 9 46 4 31-6 167-83 167-83" />
    <path id="m" d="M1409 790s5-24 14-49c9-26 84-188 110-241 24-50 67-188 78-187s-35 148-43 229c-5 59-21 140 6 142 27 1 55-95 83-155 31-65 85-191 99-189 12 2-31 79-52 170-25 104-52 234-72 297-18 60-48 135-57 136s-19-60-62-116c-34-43-49-56-106-72-64-20-156-15-257 10a749 732 0 0 0-233 100c-49 33-91 67-89 76 2 8 1044-183 1221-218 187-36 374-63 538-85 140-18 404-36 404-36" />
    <path id="organ" d="M1663 685s18-1 46-25c31-39 56-59 103-72 0 0-28 7-64 33-46 31 1 91 54 60 39-23 52-90 20-93-33-2-22 29-7 36 18 7 29 15 63 7 32-9 29-48 37-48s-14 34 1 36 25 1 31-13c5-11 4-15-7-12-10 3-44 71-30 74 24 5 80-52 112-67 30-15 94-35 94-35s-16 0-46 17c-29 19-56 50-43 62 14 15 44 5 62-15 22-26 39-63 33-63s-18 252-28 257c-11 5-20-55-19-87 0-27 20-99 52-122 33-24 80-70 115-85 34-15 72-31 72-26s-58 22-82 35c-24 12-50 34-41 55 8 20 40 21 57 15 42-14 57-45 62-67 4-23 9-36 12-36 2 0-11 64 6 66 26 2 57-62 75-61 23 1 12 29 33 29 17 1 105-60 137-67 33-7 65 7 81 5 17-2 139-95 139-95" />
  </g>
  <!--Copyright Tyler Morgan. All rights reserved.-->
  <!--See https://tylermorgan.co/intellectual-property/ for more info.-->
</svg>
