<svg xmlns="http://www.w3.org/2000/svg" viewBox="0 0 3072 1024" width="3072" height="1024" role="img" aria-labelledby="signature-title signature-description">
  <title id="signature-title">Tyler Morgan</title>
  <desc id="signature-description">Tyler Morgan signature</desc>
  <g id="fg" fill="#000">
    <path id="tyler" d="M1890 64c-204-1-773 71-977 113-3 0-7-35-78-44-286-32-776 245-771 249 88 61 534-97 769-152-6 37-123 405-127 599 0 4 4 4 11 4 6 0 18-4 19-12 7-57 22-111 37-167 47 10 68 7 105-34 14 3 21 5 32-3 0 18-4 27-6 44l-38 59c-33 53-76 135-82 153-5 18-2 19 5 27 6 7 17 6 30-3 58-43 84-114 106-180 5-16 17-50 19-62 21 6 30 14 54 2 24-14 49-34 75-60l61-58-7 21c-3 7-11 37 5 49 32 23 58-16 80-32h6l-12 19c-9 18-16 48 8 53 25 5 57-4 80-15 45-21 100-59 121-75 21-14 30-26-12-7-69 32-111 53-149 68-11 4-26 3-25 0 11-19 19-45 34-61 8-9 42-33 28-47-3-2-8-4-13-4-5-2-12 7-19 10-8 1-22-5-31 0-11 5-12 13-20 21-17 14-29 33-48 42-3-10-6-31 15-54 0 0 8 0 23-9 14-10 18-24 9-33-9-8-41-8-49-4-14 5-20 14-28 27-6 13-16 17-28 29l-81 78c-23 22-37 30-26-9 5-18 13-26 25-42 55-74 113-143 161-223 8-15 25-38 9-54-42-34-148 61-213 242-8 21-18 61-26 64-9-1 4-12 4-36-1-8-2-9-11-12-7-3-14-3-23 0-8 2-14 15-16 19-10-6-15-9-30-6-10 3-15 11-18 32-2 14-2 17-8 24-24 27-69 13-70 13 52-137 117-274 139-421 311-59 630-91 945-123 139-13 67-19 27-19zM841 160c4 3 0 29-3 36-219 63-497 146-650 160 146-76 486-238 652-196zM869 167s13 1 20 16l-23 6zM892 213c-29 132-68 238-117 353-1-39 92-341 88-343zM895 724c-13 48-29 102-70 133 3-34 57-122 70-133zM1163 311c-35 83-110 170-166 240 15-89 140-247 166-240z" />
    <path id="morgan" d="M1600 308c-64 197-113 258-180 432-266-32-497 77-606 209-3 5 47 7 71 2 34-7 267-49 632-111 26 36 40 73 55 113 2 6 18 9 27 5 14-8 36-75 64-145 52-12 389-80 409-84-2 24-4 78 12 99 6 9 32 8 35 0 13-34 11-72 13-108 249-49 502-82 755-105 164-15 160-27-3-21-224 12-454 47-749 96-2-40 11-71 46-91 68 51 123-2 138-20 65 16 67-42 83-46 12-2 13 24 54 15 20-5 86-51 132-72 27 7 56 14 85 7 38-11 137-119 137-119-11-4-133 91-157 92-40-7-79-22-205 60 0-25-33-34-46-28-12 6-40 37-58 50-2-16 10-29 4-41-6-11-17-16-36-12-114 40-151 81-156 89-7-9-3-15-12-24-9-5-20-13-29-3-20 15-29-12-137 57-2-11-1-18-12-23-7-3-9 0-14-4-6-3-9-11-17-12-10-4-28 19-65 42-11-35-9-38-51-37-4 2-8 2-12 1-28-7-97 57-99 59 14-100 41-195 77-290 7-18-4-25-12-26-9-1-23 1-34 20-34 64-129 293-145 311-4-110 22-217 49-323 8-31-5-35-14-35-26-1-22 0-29 21zM1413 761c-8 35-10 37 9 41 23 6 23-17 26-28 4 2 30 19 48 40-201 36-404 70-606 105a697 697 0 0 1 523-158zM1568 491c-5 60-13 121-14 181 0 11 7 20 34 23 25 1 37-9 45-35 18-55 38-104 62-158-4 57-58 258-66 287l-102 20c-19-24-44-43-74-60 9-37 93-228 115-258zM1622 820c-6 19-19 50-35 76l-38-60c23-6 50-12 73-16zM1792 617c6 30 35 20 23 36-35 40-96-3-23-36zM2021 621c-15 47 17 48 66 32-2 15-9 44-11 48-152 32-314 62-406 79l21-78c27-9 30-20 34-20 50 22 120 31 141-34 13-4 34-9 33-5-1 9-7 22-2 28 27 35 75-1 124-50zM2292 534c18 0-22 47-36 53-35 15-38-2-33-13 4-9 19-13 26-19 16-11 23-20 43-21z" />
  </g>
  <!--Copyright Tyler Morgan. All rights reserved.-->
  <!--See https://tylermorgan.co/intellectual-property/ for more info.-->
</svg>
