<svg viewBox="0 0 3000 1000" xmlns="http://www.w3.org/2000/svg" role="img" aria-labelledby="signature-title signature-description">
  <title id="signature-title">Tyler Morgan</title>
  <desc id="signature-description">Tyler Morgan's signature</desc>
  <path fill="#000" d="m1842 100.04c-133.26-1.3597-457.56 34.876-491.8 38.761-82.502 9.3613-339.38 44.49-362.2 48.195-22.829 3.7067-71.98 12.136-74.801 11.929-3.5348-0.26044-6.2497-29.305-73.511-36.979-33.635-3.8379-60.5-6.5949-96.358-3.2242-127.14 11.952-238.78 59.853-347.29 104.43-33.937 13.938-267.96 107.55-289.44 120.46-12.593 7.5608-3.6884 11.268-1.1316 11.836 41.307 9.1867 85.23 3.532 126.77-3.2652 135.73-22.21 265.81-56.931 395.9-91.276 79.338-20.946 197.84-50.431 209.39-53.395-4.3648 24.613-13.244 48.677-20.816 72.903-12.234 39.149-31.448 114.63-37.84 136.23-15.97 53.952-22.222 83.918-31.621 123.97-3.3857 14.432-24.077 111.95-28.017 134.44-6.0234 34.367-2.8232 64.174-1.8848 68.073 0.88096 3.6602 4.0034 4.3241 10.318 3.9525 6.3146-0.3716 16.891-4.4666 18.268-11.417 6.2966-31.806 10.191-59.584 17.77-89.261 7.58-29.678 11.136-39.378 17.348-58.973 45.316 8.2178 64.723 5.5562 100.31-31.002 12.07 2.6086 18.544 4.4674 28.671-2.3177 0.25031 15.75-2.8666 23.483-5.2458 39.122-15.472 23.136-24.585 37.113-34.972 52.338-32.102 47.051-72.783 120.83-77.673 136.59-4.8903 15.762-2.3323 16.928 3.8289 23.824 6.1613 6.8965 16.216 5.6336 28.622-2.1352 12.407-7.7687 25.045-19.847 47.664-48.459 22.62-28.612 48.219-99.401 52.579-112.76 4.3583-13.346 16.204-44.403 18.18-54.159 19.561 4.9527 27.748 11.898 51.102 0.24918 23.355-11.648 46.618-30.016 71.053-52.739 24.435-22.724 51.004-45.896 57.347-51.935 0.2462 2.1558-1.4977 7.1982-5.5526 18.577-2.9984 8.4136-3.6754 13.765-3.9747 23.333-0.2468 7.8921 0.088 14.191 8.6003 21.134 8.511 6.9414 26.433 5.5226 33.871 2.2663 29.733-13.018 35.709-27.009 42.707-31.318 2.4725-1.5219 4.8702-1.4554 4.7063-0.3888-0.1637 1.0662-5.3049 8.7246-10.386 17.322-9.7597 16.514-15.723 43.174 7.4253 47.451 23.147 4.2772 54.49-3.235 76.416-13.245 42.1-19.219 94.591-53.492 114.7-66.96 20.369-13.643 28.413-23.547-12.066-6.165-65.332 28.053-105.31 46.936-140.79 59.872-11.171 4.0724-25.024 3.3773-24.575 0.45753 0.6427-4.187 6.92-9.6859 12.612-21.694 5.5321-11.671 8.9877-21.577 20.284-32.494 9.8454-9.5131 22.324-17.985 27.927-29.216 2.6311-5.2748 4.5261-8.0368-1.8043-12.787-2.7499-2.0636-8.0612-4.2069-12.246-4.5152-4.1853-0.30836-11.848 7.0409-18.835 8.8952-6.9868 1.8545-20.566-3.6643-28.527 0.12674-10.625 5.0598-12.167 11.849-18.883 18.925-6.3782 6.719-16.137 13.137-22.132 19.993-6.2897 7.19-13.488 13.464-23.631 18.323-3.2434-9.0023-2.324-14.919-0.1674-24.036 3.5866-15.157 6.3009-16.156 13.688-24.654 0 0 8.1667-0.55189 22.341-8.747 14.174-8.1951 17.022-20.863 8.461-28.303-8.8034-7.6518-38.469-6.8824-46.713-3.8925-13.071 5.098-18.683 12.862-25.574 24.175-6.8906 11.314-16.718 15.325-27.356 25.229-41.548 38.68-52.546 47.609-76.811 69.827-21.896 20.05-35.131 27.008-25.063-7.4172 4.8275-16.508 12.526-23.609 23.401-38.196 10.328-13.851 19.991-25.939 32.154-40.075 16.929-19.677 31.212-36.576 51.095-60.913 25.956-31.771 48.941-64.454 70.303-97.783 7.9184-13.637 23.811-33.895 8.6747-48.087-25.52-20.024-68.772 14.94-73.107 18.342-35.549 27.913-82.821 98.797-93.359 116.61-17.68 25.748-26.728 53.39-36.159 80.952-5.5557 15.978-9.0764 25.554-11.701 32.441-2.9116 5.0034-5.7954 23.176-13.281 24.646-7.8373-0.57741 3.9037-10.309 4.2321-32.304-1.3503-6.2824-2.6415-8.0211-10.207-10.85-7.3933-1.481-14.247-2.0582-22.034-0.015-8.2776 2.1717-12.712 14.409-15.065 17.082-9.9175-5.3965-15.061-7.8159-28.4-4.9126-8.9177 2.5071-14.102 9.909-16.83 28.582-1.6899 12.242-1.832 15-7.7911 21.496-22.171 24.167-64.646 11.877-65.746 11.555 8.4932-22.994 19.747-52.419 28.182-70.1 26.108-54.734 48.848-111.37 67.811-166.7 22.087-64.451 35.259-123.01 38.028-141.87 112.6-20.557 210.92-33.483 335.8-50.369 138.44-18.721 552.03-56.12 559.69-56.764 58.806-4.9621 92.968-9.898 69.164-13.743-9.8386-1.9327-24.977-2.8925-44.017-3.0868zm-1061.1 78.544c30.348 0.59662 52.023 4.8353 63.935 7.9006 4.5516 1.7018 0.0481 25.055-1.4882 32.004-158.42 39.332-314.6 82.832-473.15 121.93-57.156 13.786-96.112 23.832-144.7 20.688 60.363-30.368 124.79-56.999 189.09-83.208 80.4-32.655 162.2-63.619 250.34-85.365 46.603-11.498 85.624-14.543 115.98-13.946zm90.099 13.492s12.907 1.2931 18.947 14.155c0.46539 0.99144-21.16 6.195-21.16 6.195zm22.008 41.065s-1.1904 7.6152-13.084 59.325c-11.893 51.71-60.955 180.16-72.46 207.23-11.506 27.066-16.056 39.318-22.955 47.375-1.0959-10.182 7.6347-48.477 15.926-78.218 17.591-63.099 67.224-225.93 65.884-227.2 8.5556-3.3669 17.653-5.8806 26.687-8.5043zm693.46 65.517c-8.3932 1.177-18.548 8.0783-26.895 38.831-7.7829 28.671-32.89 85.633-48.316 122.67-15.427 37.028-45.782 92.205-58.056 116.74-12.46 24.913-27.452 55.472-35.745 74.238-8.292 18.765-15.818 36.068-22.381 52.828-46.048-6.0068-115.7-11.953-195.73 1.0934-80.019 13.048-189.31 52.603-243.82 82.376-52.312 28.572-72.117 44.56-94.494 62.241-22.379 17.68-44.114 35.552-40.875 40.398 3.2402 4.8459 43.853 5.4663 66.907 1.45 32.243-5.6164 253.77-43.165 600.76-98.541 9.1873 13.538 19.805 27.709 27.575 42.634 16.498 31.688 18.799 46.157 24.422 58.093 1.5361 3.2618 6.6396 5.3408 11.266 5.6817 4.2227 0.31112 8.1824 1.8362 14.972-1.5853 12.973-6.538 33.674-67.176 60.612-129.25 49.554-10.524 370.5-71.632 389.18-74.192-1.8442 21.361-4.7692 48.506 0.8031 64.036 5.572 15.529 4.7309 16.248 10.473 24 5.7418 7.7527 30.897 2.8896 33.172-0.67019 2.2769-3.5598 5.2574-15.853 8.3707-38.776 3.1131-22.923 3.0008-47.181 3.8537-57.273 68.743-12.742 109.51-20.931 207.91-34.807 194.21-29.8 450.46-55.222 509.64-59.285 46.456-3.1903 109.78-15.587 109.95-16.694 0.1706-1.1066-62.57-3.8712-111.92-1.4005-192.68 9.6448-526 55.862-569.27 62.131-84.85 12.155-109.04 17.895-144.33 22.961 0.4808-11.817 2.2463-41.413 13.657-56.609 11.411-15.196 26.042-21.757 30.81-23.621 15.331 9.4829 24.419 17.86 47.575 18.463 23.156 0.60203 43.097-7.6991 62.976-19.829 11.825-7.2157 15.195-11.115 20.972-16.738 7.4858 1.9604 28.332 3.3272 39.616-1.2201 24.499-9.8724 26.774-37.602 38.89-39.902 12.116-2.3016 12.867 20.762 52.256 12.722 18.591-3.7939 81.559-44.436 124.59-64.345 26.2 6.0758 53.659 12.719 80.917 6.1198 36.728-9.3147 130.53-105.79 130.19-105.93-10.369-4.1308-125.9 81.531-149.05 82.739-23.142 1.2079-27.502-4.006-45.285-4.5582-69.998 3.4748-132.12 59.584-149.33 58.316-3.7118-0.27343-3.0887-9.0478-6.2101-17.333-5.3105-14.097-26.557-14.492-38.526-7.7717-11.969 6.7202-37.68 33.145-54.969 43.491-1.5752-13.69 10.258-25.776 4.4985-35.577-5.7605-9.7993-16.325-15.294-34.444-10.897-108.44 35.503-144.08 71.459-148.88 79.329-5.3078-8.4316-2.1661-13.181-11.115-21.478-3.6886-3.4202-9.9973-6.2852-13.88-6.5732-3.8835-0.28786-10.539 0.61119-13.267 3.177-7.3194 6.8867-22.875 4.2022-42.589 10.202-33.425 9.2754-60.996 25.604-88.26 41.223 0.2199-4.2362-0.5777-9.4482-2.35-13.175-1.7721-3.7269-2.2581-4.8966-7.8964-6.8546-7.2524-2.5188-9.5528-0.41141-14.274-3.7141-5.3383-3.7344-8.471-9.9373-15.768-11.552-7.2972-1.6149-28.743 16.664-46.495 29.929-6.1268 4.5777-12.037 7.8589-13.21 7.2283-1.1743-0.63083-2.9808-6.4725-4.0583-12.981-1.0783-6.5082-1.6961-9.1675-6.8362-14.719-5.0473-5.4504-35.354-7.2766-39.564-4.5496-4.2105 2.7269-7.7614 2.0947-11.526 1.4414-4.0203-0.69759-26.684 2.3882-39.3 11.084-18.492 12.746-38.606 27.332-54.895 40.515 2.2127-12.486 3.2709-15.318 7.1899-32.192 3.9188-16.872 18.516-94.308 31.172-140.62 7.0393-25.759 29.137-69.484 35.09-85.826 5.9531-16.342-4.404-21.61-12.051-22.641-7.6464-1.0302-22.236 0.50683-32.259 17.768-10.024 17.262-77.519 157.94-92.542 190.52-15.023 32.576-36.394 77.759-45.265 87.735-2.3638-35.854-0.5044-71.374 4.4583-107.11 8.5677-61.688 25.583-122.11 42.384-182.75 7.4634-26.937-5.1429-30.052-13.499-30.817-2.2749-0.20823-4.8757-0.45245-7.6734-0.06zm-443.6 23.971c1.8843 0.44539-0.4152 9.1241-3.3486 14.613-23.618 44.201-63.271 94.226-78.692 113.77-15.422 19.551-34.829 42.158-61.495 71.524 5.7851-31.887 30.557-74.22 48.167-101.78 17.61-27.561 69.073-80.946 76.194-87.069 7.184-6.1759 17.474-11.467 19.176-11.066zm392.77 158.51c0.7899 5.209-3.8665 37.006-6.9788 77.482-3.1126 40.475-5.7314 68.393-5.6243 84.753 0.061 9.344 7.367 17.518 31.53 19.225 24.162 1.7073 35.354-7.9427 43.405-30.66 6.9739-19.679 11.475-35.406 22.429-62.67 10.953-27.265 21.418-52.607 36.854-77.85-1.0938 13.245-2.08 11.513-7.2673 39.411-9.2809 49.913-36.119 149.38-56.249 216.26-2.6238 0.58346-83.875 16.364-96.728 18.056-17.944-20.979-41.728-38.276-69.545-52.856 3.8777-14.95 16.51-43.444 27.991-71.863 8.5006-21.046 15.259-36.196 27.887-58.739 9.399-16.777 12.42-26.36 21.247-43.776 8.8263-17.416 20.471-43.79 31.052-56.773zm684.52 38.928c1.9059-0.19778 3.7246-0.21285 5.3172 0.0599 2.1234 0.36403 3.8432 1.2388 4.8242 2.8762 1.7139 3.5349-26.153 39.43-39.485 44.013-13.332 4.5811-21.28 6.8426-29.265 2.9838-7.9828-3.859-5.2557-9.0102-2.4181-15.372 3.4143-7.6588 17.426-10.8 25.314-16.168 8.2774-5.6333 12.439-11.629 20.046-14.517 3.4542-1.0434 9.9478-3.2817 15.666-3.8751zm-471.02 74.046c0.7955 3.9923 2.0493 9.3293 8.3954 14.458 11.452 9.2544 21.253 7.3346 13.496 16.975-8.576 10.656-32.27 16.373-44.143 10.143-11.768-6.1757-9.2254-20.655-4.1235-26.415 5.1021-5.7601 17.984-12.56 26.375-15.161zm217.7 2.5648c-0.275 3.7225-1.3498 5.8305-2.7592 15.513-1.4094 9.6813-4.3352 19.118 14.335 22.434 18.67 3.3173 45.492-5.6216 51.491-8.2573-1.5861 12.56-9.2818 38.17-10.606 42.66-144.46 27.479-298.01 55.33-386.49 70.077 7.5845-25.49 15.22-53.303 20.456-69.552 25.322-7.2248 28.596-17.451 32.327-17.234 1.7299 0.10184 18.975 9.4939 31.682 11.983 12.708 2.488 32.872 5.2596 56.977 1.9848 18.994-2.5804 32.316-13.166 37.948-20.858 5.6326-7.6923 7.0308-15.726 7.4438-23.971 12.389-3.8952 31.92-8.1396 31.028-4.3069-0.9725 8.1068-2.4372 18.069-1.8014 24.39 0.7526 7.4766 31.8 14.938 45.659 12.722 5.0163-0.80184 22.239-11.173 32.361-20.948 25.915-25.03 29.01-25.337 39.951-36.636zm-1070.3 92.096c-4.0361 18.257-20.523 61.187-28.93 75.841s-23.403 33.903-36.838 43.343c1.0572-11.925 10.03-33.195 16.648-44.883 6.6295-11.706 36.832-64.214 49.118-74.303zm399.65 26.211c34.442-0.62689 64.963 2.2072 92.383 6.9663-8.0124 32.179-9.7704 32.82 8.3119 37.302 21.693 4.9724 21.782-15.018 25.519-25.438 3.4492 2.0472 28.384 17.585 46.066 36.355-191.79 31.448-384.05 61.874-576.06 92.452 30.539-28.409 128.36-86.525 195.06-108.54 83.004-27.396 151.31-38.057 208.7-39.102zm291.5 60.122c-5.4899 16.773-17.592 45.361-33.593 68.371-12.248-19.405-33.951-50.638-35.618-54.776 21.053-4.5793 47.406-10.212 69.21-13.594z" />
  <!--Copyright Tyler Morgan. All rights reserved.-->
  <!--See https://tylermorgan.co/intellectual-property/ for more info.-->
</svg>