<?xml version="1.0" encoding="UTF-8" standalone="no"?>
<svg
   width="1920"
   height="1080"
   viewBox="0 0 1920 1080"
   role="img"
   aria-labelledby="tylerjmorg-live-title tylerjmorg-live-description"
   version="1.1"
   id="svg1"
   sodipodi:docname="tylerjmorg_live.svg"
   xml:space="preserve"
   inkscape:version="1.4 (e7c3feb1, 2024-10-09)"
   xmlns:inkscape="http://www.inkscape.org/namespaces/inkscape"
   xmlns:sodipodi="http://sodipodi.sourceforge.net/DTD/sodipodi-0.dtd"
   xmlns="http://www.w3.org/2000/svg"
   xmlns:svg="http://www.w3.org/2000/svg"
   xmlns:rdf="http://www.w3.org/1999/02/22-rdf-syntax-ns#"
   xmlns:cc="http://creativecommons.org/ns#"
   xmlns:dc="http://purl.org/dc/elements/1.1/"><defs
     id="defs1" /><sodipodi:namedview
     id="namedview1"
     pagecolor="#ffffff"
     bordercolor="#000000"
     borderopacity="0.25"
     inkscape:showpageshadow="2"
     inkscape:pageopacity="0.0"
     inkscape:pagecheckerboard="0"
     inkscape:deskcolor="#d1d1d1"
     showguides="false"
     inkscape:lockguides="true"
     inkscape:zoom="0.31139037"
     inkscape:cx="1021.2262"
     inkscape:cy="542.72713"
     inkscape:window-width="1472"
     inkscape:window-height="825"
     inkscape:window-x="0"
     inkscape:window-y="38"
     inkscape:window-maximized="0"
     inkscape:current-layer="live"><sodipodi:guide
       position="1537.4492,581.23047"
       orientation="1,0"
       id="guide1"
       inkscape:locked="true" /><sodipodi:guide
       position="1385.1016,698.51562"
       orientation="0,-1"
       id="guide2"
       inkscape:locked="true" /><sodipodi:guide
       position="1148.5977,566.21875"
       orientation="0,-1"
       id="guide3"
       inkscape:locked="true" /><sodipodi:guide
       position="1148.7266,480.76953"
       orientation="0,-1"
       id="guide4"
       inkscape:locked="true" /><sodipodi:guide
       position="1021.9297,523.49219"
       orientation="0,-1"
       id="guide5"
       inkscape:locked="true" /><sodipodi:guide
       position="841.34375,381.48438"
       orientation="0,-1"
       id="guide6"
       inkscape:locked="true" /><sodipodi:guide
       position="382.55508,381.26573"
       orientation="1,0"
       id="guide7"
       inkscape:locked="true" /><sodipodi:guide
       position="841,698.87891"
       orientation="1,0"
       id="guide8"
       inkscape:locked="true" /><sodipodi:guide
       position="867.48438,599.25"
       orientation="0,-1"
       id="guide9"
       inkscape:locked="true" /><sodipodi:guide
       position="1011.3516,539.99609"
       orientation="0,-1"
       id="guide10"
       inkscape:locked="true" /></sodipodi:namedview><title
     id="tylerjmorg-live-title">tylerjmorg LIVE</title><desc
     id="tylerjmorg-live-description">A platinum landscape background with the atomic grey TM logo, the atomic grey letters tylerjmorg, and a red live icon</desc><rect
     id="bg"
     fill="#e7e8e9"
     width="1920"
     height="1080" /><g
     id="fg"
     transform="translate(0.68572169,16.986885)"><g
       id="live"
       transform="translate(-1.4483,-12.810285)"><path
         id="live-bg"
         fill="#bc1823"
         d="m 1385.5957,377.30469 c -4.4076,0 -7.9824,3.83835 -7.9824,8.56836 v 38.73828 c 0,4.73001 3.5748,8.5664 7.9824,8.5664 h 144.6309 c 4.4075,0 7.9824,-3.83639 7.9824,-8.5664 v -38.73828 c 0,-4.73001 -3.5749,-8.56836 -7.9824,-8.56836 z"
         style="fill:#95131c;fill-opacity:1" /><g
         id="live-fg"
         fill="#ffffff"
         style="fill:#e7e8e9;fill-opacity:1"><path
           id="live-circle"
           d="m 1407.6406,396.00391 c -5.9264,-0.11547 -10.8191,4.59098 -10.9355,10.51757 -0.1151,5.92659 4.591,10.82007 10.5176,10.93555 5.9225,0.11533 10.8205,-4.59099 10.9355,-10.51758 0.1151,-5.9266 -4.5949,-10.8202 -10.5176,-10.93554 z"
           style="fill:#e7e8e9;fill-opacity:1" /><path
           id="live-text"
           d="m 1435.8242,392.13867 v 27.5 h 17.7305 v -3.60156 h -13.1113 v -23.89844 z m 22.3028,0 v 27.5 h 4.6406 v -27.5 z m 8.9746,0 13.2636,27.5 h 3.8555 l 13.2207,-27.5 h -5.0547 l -6.1621,13.61914 -3.8555,8.28321 h -0.1738 l -3.8555,-8.28321 -6.1425,-13.61914 z m 34.3027,0 v 27.5 h 17.8594 v -3.60156 h -13.2422 v -8.59961 h 11.1074 v -3.54492 h -11.1074 v -8.1543 h 13.2422 v -3.59961 z"
           style="fill:#e7e8e9;fill-opacity:1" /></g></g><path
       id="tylerjmorg"
       fill="#454d51"
       d="m 1050.7539,458.44978 v 38.34375 h -13.5723 l -17.6054,51.04688 -5.4668,16.39844 h -0.6426 l -6.0293,-16.39844 -19.21094,-51.04688 h -7.54492 v -0.0801 h -20.82031 v -26.84766 h -16.39844 v 26.84766 h -14.14844 v 14.22851 h 14.14844 v 46.3828 c 0,7.66347 2.17086,13.96029 6.51172,18.89063 4.34084,4.87676 10.79853,7.31642 19.37305,7.31642 2.8403,0 5.35942,-0.29527 7.55664,-0.88477 2.2508,-0.5359 4.28728,-1.20591 6.10937,-2.00978 l -5.86914,-13.82617 c -0.96463,0.48233 -2.00936,0.91002 -3.13476,1.28516 -1.12541,0.37513 -2.35751,0.5625 -3.69727,0.5625 -3.05467,0 -5.57377,-1.04472 -7.55664,-3.13477 -1.92926,-2.14363 -2.89453,-5.33079 -2.89453,-9.56444 v -45.01758 h 16.53906 l 29.54881,71.33789 -2.4492,7.44141 c -0.4823,1.50054 -1.2867,3.26825 -2.4121,5.30469 -1.0718,2.03645 -2.62566,3.8061 -4.66212,5.30664 -1.98285,1.55413 -4.52847,2.3036 -7.63672,2.25 -1.50054,0 -3.13579,-0.26879 -4.90429,-0.80469 -1.71491,-0.48232 -3.37666,-1.12387 -4.98438,-1.92774 l -6.0293,14.3086 c 1.33977,0.64308 3.48415,1.31309 6.43164,2.00976 2.94748,0.75027 6.0552,1.125 9.32422,1.125 4.98393,0 9.1383,-0.83086 12.46095,-2.49218 3.3762,-1.66131 6.1622,-3.75076 8.3594,-6.26953 2.1972,-2.51876 3.9384,-5.11931 5.2246,-7.79883 1.3397,-2.67954 2.3864,-5.03778 3.1367,-7.07422 l 32.9453,-87.0586 v 54.66407 c 0,4.55521 0.67,8.52027 2.0098,11.89648 1.3397,3.32263 3.3762,5.89471 6.1093,7.7168 2.7332,1.76849 6.2156,2.6543 10.4493,2.6543 1.4469,0 2.8418,-0.1079 4.1816,-0.32227 1.3934,-0.21437 2.5725,-0.50962 3.5371,-0.88477 v -14.1484 c -0.5895,0.16076 -1.2065,0.32164 -1.8496,0.48242 -0.5895,0.1072 -1.233,0.16211 -1.9297,0.16211 -1.9293,0 -3.3222,-0.42966 -4.1797,-1.28711 -0.8574,-0.91104 -1.393,-1.98226 -1.6074,-3.21485 -0.2144,-1.28618 -0.3223,-2.49178 -0.3223,-3.61718 V 458.44978 Z m 154.8672,2.33204 c -3.269,0 -6.0285,1.12419 -8.2793,3.375 -2.1972,2.2508 -3.2969,4.98573 -3.2969,8.20117 0,3.21544 1.0997,5.94841 3.2969,8.19922 2.2508,2.2508 5.0103,3.375 8.2793,3.375 3.2154,0 5.9484,-1.1242 8.1992,-3.375 2.2508,-2.25081 3.377,-4.98378 3.377,-8.19922 0,-3.21544 -1.1262,-5.95037 -3.377,-8.20117 -2.2508,-2.25081 -4.9838,-3.375 -8.1992,-3.375 z m 288.6973,34.64648 c -6.8061,0 -13.1844,1.68823 -19.1329,5.06445 -4.6047,2.63724 -8.4991,6.23725 -11.7304,10.73828 l 6.1172,-14.51757 c -0.6968,-0.26794 -1.8759,-0.53479 -3.5371,-0.80274 -1.6613,-0.26795 -3.4575,-0.40234 -5.3868,-0.40234 -4.9303,0 -9.2985,0.93683 -13.1035,2.8125 -3.7513,1.82209 -6.965,4.23525 -9.6445,7.23633 -1.1423,1.30535 -2.1313,2.65337 -3.0606,4.01953 h -0.4765 v -12.78321 h -16.2383 v 34.7168 c -0.7749,-5.51202 -2.366,-10.5685 -4.8926,-15.10156 -3.6441,-6.59165 -8.654,-11.70934 -15.0312,-15.35352 -6.3774,-3.69774 -13.6395,-5.54687 -21.7852,-5.54687 -8.0387,0 -15.2456,1.84913 -21.623,5.54687 -6.3773,3.64418 -11.4156,8.76187 -15.1133,15.35352 -1.7038,3.01261 -2.9699,6.26596 -3.8887,9.71094 -0.053,-3.91219 -0.6039,-7.66622 -1.7265,-11.23829 -1.1255,-3.75134 -2.8932,-7.07484 -5.3047,-9.96875 -2.3581,-2.94749 -5.3863,-5.2508 -9.084,-6.9121 -3.6442,-1.66131 -7.931,-2.49219 -12.8613,-2.49219 -6.163,0 -11.8712,1.41946 -17.1231,4.25976 -3.5132,1.91959 -6.3757,4.55745 -8.6894,7.79883 h -0.5665 c -1.6252,-2.82056 -3.749,-5.28903 -6.498,-7.3164 -4.2872,-3.16187 -9.5393,-4.7422 -15.7559,-4.7422 -6.3237,0 -11.871,1.71473 -16.6406,5.14454 -2.4782,1.75422 -4.5912,3.91062 -6.375,6.43164 h -0.457 v -10.29102 h -16.0781 v 85.45118 h 16.3984 v -52.00977 c 0,-6.75243 1.7412,-11.79066 5.2246,-15.11328 3.4834,-3.32263 7.5848,-4.98243 12.3008,-4.98243 4.9839,0 8.9755,1.6598 11.9766,4.98243 3.001,3.26904 4.5019,8.1199 4.5019,14.55078 v 52.57227 h 16.3984 v -52.57227 c 0,-4.39444 0.8044,-8.01125 2.4122,-10.85156 1.6613,-2.89389 3.8321,-5.06475 6.5117,-6.51172 2.6795,-1.44694 5.5998,-2.16992 8.7617,-2.16992 4.9839,0 8.949,1.65979 11.8965,4.98242 2.9475,3.26904 4.4218,8.1199 4.4218,14.55078 v 52.57227 h 16.3985 v -29.8125 c 0.9168,3.46651 2.1646,6.75129 3.8457,9.79687 3.6977,6.69884 8.736,11.92444 15.1133,15.67578 6.3774,3.75136 13.5843,5.62696 21.623,5.62696 8.0385,0 15.2478,-1.8756 21.625,-5.62696 6.3774,-3.75134 11.4136,-8.97694 15.1113,-15.67578 2.5704,-4.65647 4.1889,-9.83806 4.9727,-15.47851 v 35.49414 h 16.3984 v -47.75 c 0,-3.69775 0.6966,-6.96634 2.0899,-9.80664 1.3934,-2.84031 3.1894,-5.19855 5.3867,-7.07422 2.2507,-1.92927 4.6619,-3.40171 7.2344,-4.41993 2.5723,-1.01821 5.0364,-1.52734 7.3945,-1.52734 1.4469,0 2.7606,0.10593 3.9395,0.32031 1.0477,0.14287 1.6592,0.31482 2.0722,0.5 -0.596,0.89426 -1.2181,1.7541 -1.7636,2.7168 -3.6442,6.43088 -5.4649,14.22662 -5.4649,23.39063 0,6.80601 1.0182,12.91547 3.0547,18.32812 2.0901,5.35908 4.9288,9.91467 8.5195,13.66602 3.5906,3.75134 7.6901,6.61869 12.2989,8.60156 4.6087,1.98284 9.4066,2.97461 14.3906,2.97461 7.1811,0 13.5839,-1.92858 19.2109,-5.78711 2.8675,-1.94775 5.4248,-4.25622 7.6778,-6.91406 h 0.2812 v 10.53125 c 0,5.51984 -1.393,9.94104 -4.1797,13.26367 -2.7867,3.37621 -6.2447,5.8139 -10.3711,7.31445 -4.1265,1.50054 -8.1994,2.25 -12.2187,2.25 -4.7696,0 -9.4312,-0.80242 -13.9864,-2.41016 -4.5015,-1.55412 -8.0919,-3.2973 -10.7714,-5.22656 l -5.9493,13.98828 c 3.3226,2.03644 7.8253,3.88557 13.5059,5.54688 5.7342,1.7149 11.7886,2.57226 18.166,2.57226 5.4126,0 10.5854,-0.75141 15.5156,-2.25195 4.9842,-1.50055 9.4317,-3.80386 13.3438,-6.91211 3.9657,-3.10827 7.0998,-7.07527 9.4043,-11.89844 2.3044,-4.76957 3.457,-10.47584 3.457,-17.12109 v -82.39648 h -15.9961 v 10.20898 h -0.3574 c -2.061,-2.30146 -4.3634,-4.33026 -6.959,-6.02734 -5.5198,-3.64418 -11.8961,-5.4668 -19.1308,-5.4668 z m -384.252,0.0801 c -7.4491,0 -14.2021,1.82263 -20.2578,5.46679 -6.0558,3.59058 -10.8517,8.65333 -14.3887,15.19141 -3.537,6.53806 -5.3047,14.28278 -5.3047,23.23242 0,8.84247 1.7942,16.58718 5.3848,23.23242 3.5906,6.59166 8.5474,11.73585 14.8711,15.4336 6.3773,3.64417 13.7208,5.4668 22.0273,5.4668 5.7343,0 11.0393,-0.83087 15.9161,-2.49219 4.9303,-1.66131 9.0562,-3.67131 12.3789,-6.0293 l -5.9493,-14.06836 c -1.5541,1.28619 -3.4297,2.57318 -5.6269,3.85938 -2.1972,1.23257 -4.6879,2.25082 -7.4746,3.05467 -2.7867,0.80387 -5.7885,1.20508 -9.0039,1.20508 -5.5735,0 -10.3959,-1.23209 -14.4688,-3.69726 -4.0729,-2.51876 -7.209,-6.00313 -9.4062,-10.45118 -1.3845,-2.83656 -2.2809,-5.99322 -2.793,-9.40429 h 60.9922 c 0.2679,-1.33977 0.5102,-2.89362 0.7246,-4.66211 0.2588,-1.75987 0.3798,-3.68625 0.3887,-5.74609 v 47.14454 h 16.3984 v -47.75 c 0,-3.69776 0.6985,-6.96634 2.0918,-9.80665 1.3934,-2.84031 3.1876,-5.19854 5.3848,-7.07421 2.2508,-1.92927 4.662,-3.40171 7.2343,-4.41993 2.5724,-1.01821 5.0385,-1.52734 7.3965,-1.52734 1.447,0 2.7585,0.10592 3.9375,0.3203 1.179,0.16077 1.9569,0.34814 2.3321,0.5625 l 4.5703,-10.84765 v 88.17968 c 0,3.96572 -0.9653,6.99395 -2.8946,9.08399 -1.8756,2.09002 -4.743,3.13476 -8.6015,3.13476 -1.0718,0 -2.2774,-0.0794 -3.6172,-0.24023 -1.3398,-0.16077 -2.6248,-0.42955 -3.8574,-0.80469 v 15.35352 c 1.5005,0.32155 2.9729,0.56187 4.4199,0.72265 1.5005,0.16077 3.0544,0.24219 4.6621,0.24219 6.0558,0 11.0145,-1.17912 14.8731,-3.53711 3.9121,-2.3044 6.7775,-5.49351 8.5996,-9.5664 1.8756,-4.01931 2.8144,-8.57491 2.8144,-13.66602 v -93.81055 h -14.3301 l 0.033,-0.0801 c -0.6966,-0.26794 -1.8758,-0.53479 -3.5371,-0.80274 -1.6613,-0.26795 -3.4555,-0.40234 -5.3847,-0.40234 -4.9304,0 -9.2986,0.93683 -13.1036,2.8125 -3.7513,1.82209 -6.9669,4.23525 -9.6464,7.23633 -1.1422,1.30535 -2.1313,2.65337 -3.0606,4.01953 h -0.4765 v -12.78321 h -16.2383 v 37.85547 c -0.036,-7.66504 -1.6846,-14.41968 -4.9707,-20.25 -3.3227,-5.94855 -7.8518,-10.58362 -13.586,-13.90625 -5.6806,-3.32262 -12.1647,-4.98437 -19.4531,-4.98437 z m 0,14.46875 c 4.5552,0 8.4938,1.04473 11.8164,3.13476 3.3762,2.03644 5.9748,4.82435 7.7969,8.36133 1.8221,3.48339 2.7344,7.36901 2.7344,11.65625 h -46.4864 c 0.4732,-3.36025 1.3071,-6.46331 2.5957,-9.24414 2.0901,-4.39444 4.9839,-7.79739 8.6817,-10.20898 3.6977,-2.46519 7.9846,-3.69922 12.8613,-3.69922 z m 386.7441,0.0801 c 4.7696,0 8.977,1.15262 12.6211,3.45703 3.6978,2.30439 6.5916,5.57296 8.6817,9.80664 2.1436,4.18008 3.2148,9.13885 3.2148,14.87304 0,5.7878 -1.0712,10.87901 -3.2148,15.27344 -2.0901,4.39445 -4.9839,7.85037 -8.6817,10.36914 -3.6977,2.46518 -7.9314,3.69727 -12.7011,3.69727 -4.8231,0 -9.112,-1.25857 -12.8633,-3.77735 -3.7514,-2.51875 -6.6981,-5.9482 -8.8418,-10.28906 -2.0901,-4.39443 -3.1348,-9.40617 -3.1348,-15.0332 0,-5.62702 1.0447,-10.55735 3.1348,-14.79102 2.0901,-4.28726 5.0104,-7.60879 8.7617,-9.96679 3.7514,-2.41158 8.0931,-3.61914 13.0234,-3.61914 z m -120.3945,0.24218 c 5.0374,0 9.5137,1.20561 13.4258,3.61719 3.9121,2.35799 6.9668,5.70798 9.1641,10.04883 2.1972,4.34083 3.2949,9.37711 3.2949,15.11132 0,5.94855 -1.0977,11.14766 -3.2949,15.5957 -2.1973,4.39444 -5.252,7.85038 -9.1641,10.36914 -3.9121,2.46517 -8.3884,3.69922 -13.4258,3.69922 -5.0376,0 -9.5117,-1.23405 -13.4238,-3.69922 -3.8586,-2.51876 -6.9134,-5.9747 -9.1641,-10.36914 -2.1972,-4.44804 -3.2968,-9.64715 -3.2968,-15.5957 0,-5.78781 1.126,-10.82407 3.3769,-15.11132 2.2507,-4.34086 5.332,-7.69084 9.2441,-10.04883 3.9122,-2.41157 8.3333,-3.61719 13.2637,-3.61719 z"
       style="fill:#424a4e;fill-opacity:1" /><g
       id="foreground"
       fill="#424a4e"
       transform="matrix(0.57021119,0,0,0.57021119,325.98616,237.90752)"
       inkscape:label="logo"><path
         id="letter-t"
         d="m 98,222 v 76 h 98 v 304 h 92 V 298 h 98 v -76 z" /><path
         id="left-bar-3"
         d="m 98,702 v 76 h 288 v -76 z" /><path
         id="right-bar-6"
         d="m 486,222 v 76 h 416 v -76 z" /><path
         id="letter-m"
         d="m 486,398 v 380 h 92 V 650 l -4,-98 h 4 l 104,130 h 24 L 810,552 h 4 l -4,98 v 128 h 92 V 398 H 840 L 696,578 h -4 L 548,398 Z" /></g><path
       d="m 859.87128,463.76263 v 15.51368 h 31.02734 v 102.97071 h 17.04102 V 479.27631 h 30.94727 v -15.51368 z"
       style="-inkscape-font-specification:'Reddit Sans Medium';display:none;fill:#454d51;stroke-width:4.31011"
       id="path9"
       inkscape:label="capital-t-reference" /></g><metadata
     id="metadata1"><rdf:RDF><cc:Work
         rdf:about=""><dc:title>tylerjmorg LIVE</dc:title></cc:Work></rdf:RDF></metadata></svg>
